{"title":"Priyanka Chopra Ft. Pitbull - Exotic [Music Video] 1080p [Sbyky]","uid":8725409,"size":191211277,"categoryP":"video","categoryS":"music_videos","magnet":"?xt=urn:btih:ca2860bf8da89d0efdf61135e65957a27af87abb&amp;dn=Priyanka+Chopra+Ft.+Pitbull+-+Exotic+%5BMusic+Video%5D+1080p+%5BSbyky%5D&amp;tr=udp%3A%2F%2Ftracker.openbittorrent.com%3A80&amp;tr=udp%3A%2F%2Fopen.demonii.com%3A1337&amp;tr=udp%3A%2F%2Ftracker.coppersurfer.tk%3A6969&amp;tr=udp%3A%2F%2Fexodus.desync.com%3A6969","seeders":2,"leechers":0,"uploader":"Sbyky","files":-1,"time":1374508055,"description":"\n\nGeneral\nComplete name                            : Priyanka Chopra Ft. Pitbull - Exotic [Music Video] 1080p [Sbyky].mp4\nFormat                                   : MPEG-4\nFormat profile                           : Base Media / Version 2\nCodec ID                                 : mp42\nFile size                                : 182 MiB\nDuration                                 : 4mn 29s\nOverall bit rate mode                    : Variable\nOverall bit rate                         : 5 679 Kbps\nEncoded date                             : UTC 2013-07-10 01:37:02\nTagged date                              : UTC 2013-07-10 01:37:02\n\nVideo\nID                                       : 1\nFormat                                   : AVC\nFormat/Info                              : Advanced Video Codec\nFormat profile                           : &lt;a class=&quot;__cf_email__&quot; href=&quot;/cdn-cgi/l/email-protection&quot; data-cfemail=&quot;0a42636d624a463e243a&quot;&gt;[email&amp;#160;protected]&lt;/a&gt;&lt;script cf-hash='f9e31' type=&quot;text/javascript&quot;&gt;\n/* &lt;![CDATA[ */!function(){try{var t=&quot;currentScript&quot;in document?document.currentScript:function(){for(var t=document.getElementsByTagName(&quot;script&quot;),e=t.length;e--;)if(t[e].getAttribute(&quot;cf-hash&quot;))return t[e]}();if(t&amp;&amp;t.previousSibling){var e,r,n,i,c=t.previousSibling,a=c.getAttribute(&quot;data-cfemail&quot;);if(a){for(e=&quot;&quot;,r=parseInt(a.substr(0,2),16),n=2;a.length-n;n+=2)i=parseInt(a.substr(n,2),16)^r,e+=String.fromCharCode(i);e=document.createTextNode(e),c.parentNode.replaceChild(e,c)}}}catch(u){}}();/* ]]&gt; */&lt;/script&gt;\nFormat settings, CABAC                   : Yes\nFormat settings, ReFrames                : 1 frame\nCodec ID                                 : avc1\nCodec ID/Info                            : Advanced Video Coding\nDuration                                 : 4mn 29s\nBit rate                                 : 5 485 Kbps\nMaximum bit rate                         : 10.9 Mbps\nWidth                                    : 1 920 pixels\nHeight                                   : 1 080 pixels\nDisplay aspect ratio                     : 16:9\nFrame rate mode                          : Constant\nFrame rate                               : 23.976 fps\nColor space                              : YUV\nChroma subsampling                       : 4:2:0\nBit depth                                : 8 bits\nScan type                                : Progressive\nBits/(Pixel*Frame)                       : 0.110\nStream size                              : 176 MiB (97%)\nTagged date                              : UTC 2013-07-10 01:37:12\n\nAudio\nID                                       : 2\nFormat                                   : AAC\nFormat/Info                              : Advanced Audio Codec\nFormat profile                           : LC\nCodec ID                                 : 40\nDuration                                 : 4mn 29s\nBit rate mode                            : Variable\nBit rate                                 : 192 Kbps\nMaximum bit rate                         : 202 Kbps\nChannel(s)                               : 2 channels\nChannel positions                        : Front: L R\nSampling rate                            : 44.1 KHz\nCompression mode                         : Lossy\nStream size                              : 6.17 MiB (3%)\nTitle                                    : IsoMedia File Produced by Google, 5-11-2011\nEncoded date                             : UTC 2013-07-10 01:37:10\nTagged date                              : UTC 2013-07-10 01:37:12\n\nShared By Sbyky\n","torrent":{"xt":"urn:btih:ca2860bf8da89d0efdf61135e65957a27af87abb","amp;dn":"Priyanka+Chopra+Ft.+Pitbull+-+Exotic+%5BMusic+Video%5D+1080p+%5BSbyky%5D","amp;tr":["udp%3A%2F%2Ftracker.openbittorrent.com%3A80","udp%3A%2F%2Fopen.demonii.com%3A1337","udp%3A%2F%2Ftracker.coppersurfer.tk%3A6969","udp%3A%2F%2Fexodus.desync.com%3A6969"],"infoHash":"ca2860bf8da89d0efdf61135e65957a27af87abb","infoHashBuffer":{"type":"Buffer","data":[202,40,96,191,141,168,157,14,253,246,17,53,230,89,87,162,122,248,122,187]},"announce":[],"urlList":[]}}